<?xml version="1.0" encoding="UTF-8"?><svg id="Capa_1" xmlns="http://www.w3.org/2000/svg" viewBox="0 0 300 300"><defs><style>.cls-1{fill:#2e3192;}.cls-2{fill:#f2f2f2;}</style></defs><circle class="cls-2" cx="150" cy="150" r="99.5"/><path class="cls-1" d="M92.5,193.76c.55-1.49,1.4-2.68,2.93-3.33,.25-.11,.4-.71,.41-1.09,.03-5.83,0-11.66,.02-17.48,.03-8.34,5.76-15.14,13.99-16.57,1.06-.18,2.16-.2,3.24-.23,1.53-.04,3.06,0,4.68,0v-6.31c-.57,.14-1.14,.33-1.71,.39-2.01,.21-3.82-.87-4.59-2.69-.79-1.86-.31-3.88,1.33-5.25,4.71-3.92,9.43-7.82,14.15-11.72,5.84-4.83,11.67-9.68,17.53-14.49,.66-.54,.99-1.08,.95-1.97-.08-1.79-.02-3.58-.02-5.54-.87,0-1.68,.02-2.48,0-2.52-.07-4.42-1.95-4.46-4.39-.04-2.47,1.89-4.46,4.43-4.56,.78-.03,1.57,0,2.52,0,0-1.08,0-2.11,0-3.14,.02-2.75,1.88-4.73,4.45-4.75,2.63-.01,4.5,1.97,4.52,4.79,0,.97,0,1.94,0,3.09,.77,0,1.5,0,2.22,0,2.73,.03,4.72,1.93,4.72,4.5,0,2.57-1.97,4.43-4.73,4.47-.7,.01-1.4,0-2.21,0,0,2.2-.04,4.28,.04,6.36,.01,.35,.45,.73,.77,1,8.39,6.96,16.8,13.91,25.2,20.87,2.1,1.74,4.2,3.47,6.3,5.22,2.04,1.7,2.56,3.92,1.42,5.96-1.12,1.99-3.23,2.69-5.72,1.89-.1-.03-.21-.03-.39-.05v6.32c.46,0,.93-.02,1.39,0,2.6,.15,5.28-.02,7.79,.54,7.66,1.72,12.81,8.53,12.75,16.43-.02,2.73-1.91,4.71-4.49,4.7-2.53,0-4.34-1.96-4.51-4.61-.08-1.28-.29-2.63-.82-3.77-1.13-2.48-3.19-3.97-5.92-4.2-2.03-.17-4.09-.03-6.2-.03v26.07c.45,0,.85,0,1.25,0,6.46,0,12.93,0,19.39,0,1.88,0,3.33,.82,4.17,2.52,.8,1.61,.63,3.2-.43,4.65-.81,1.12-1.95,1.71-3.34,1.79-.41,.02-.82,0-1.23,0-34.48,0-68.96-.02-103.44,.04-2.78,0-4.78-.78-5.86-3.41v-2.02Zm80.4-3.63c.02-.27,.05-.41,.05-.56,0-15.88,0-31.76-.03-47.64,0-.43-.32-.98-.67-1.27-5.47-4.58-10.97-9.12-16.47-13.67-1.95-1.61-3.9-3.22-5.87-4.85-.34,.26-.61,.45-.87,.66-7.14,5.91-14.26,11.82-21.42,17.71-.61,.5-.83,1.01-.83,1.79,.02,15.54,.02,31.08,.02,46.63v1.18h18.58c0-.47,0-.87,0-1.28,0-6.73-.01-13.45,0-20.18,0-2.64,1.96-4.59,4.5-4.58,2.53,.01,4.45,1.97,4.46,4.62,.02,6.72,0,13.45,0,20.18,0,.4,0,.8,0,1.25h18.53Zm-68.08-.02h12.96v-25.99c-2.12,0-4.18-.15-6.2,.03-3.81,.35-6.68,3.58-6.74,7.41-.04,2.84-.01,5.67-.01,8.51,0,3.32,0,6.63,0,10.04Z"/></svg>