<?xml version="1.0" encoding="utf-8"?>
<!-- Generator: Adobe Illustrator 27.1.1, SVG Export Plug-In . SVG Version: 6.00 Build 0)  -->
<svg version="1.1" id="Capa_1" xmlns="http://www.w3.org/2000/svg" xmlns:xlink="http://www.w3.org/1999/xlink" x="0px" y="0px"
	 viewBox="0 0 300 300" style="enable-background:new 0 0 300 300;" xml:space="preserve">
<style type="text/css">
	.st0{fill:#F2F2F2;}
	.st1{fill:#2E3192;}
</style>
<circle class="st0" cx="150" cy="150" r="99.5"/>
<g>
	<path class="st1" d="M147.8,102c0-4.4,0-8.7,0-13.1c-0.5,0-1,0-1.5,0c-3,0-6.1,0-9.1,0c-1.5,0-2.5-0.9-2.4-2.2c0-1.2,1-2.1,2.4-2.1
		c8.6,0,17.2,0,25.8,0c1.4,0,2.3,0.9,2.4,2.1c0,1.3-0.9,2.2-2.4,2.2c-3.5,0-7,0-10.6,0c0,4.4,0,8.7,0,13.1c16.2,1.3,29.1,8.4,38,22
		c6.4,9.7,8.8,20.5,7.3,32c-3.3,25.4-25,42.7-48.9,42c-24.8-0.7-44-19.6-46.4-42.8c-1.4-13.7,2.4-25.9,11.3-36.3
		C122.5,108.4,134,103,147.8,102z M138.4,131.9c-1,2.8-1.9,17.2-1.3,19.5c8.6,1.1,17.3,1.1,25.9,0c0.4-4.1-0.5-17.3-1.5-19.4
		C153.8,132.7,146.1,132.7,138.4,131.9z M161.1,173.4c0.7-5.9,1.4-11.6,2.1-17.7c-8.9,1.1-17.4,1.1-26.4,0
		c0.7,6.1,1.4,11.9,2.1,17.7C146.4,174.2,153.6,174.2,161.1,173.4z M138.9,127.5c7.5,0.8,14.7,0.8,22.2,0c-0.7-2.8-1.3-5.6-2.2-8.2
		c-1.2-3.9-2.6-7.7-5.3-10.8c-2.4-2.8-4.8-2.9-7.2,0C141.9,113.9,140.6,120.6,138.9,127.5z M123.3,129c-2.2,5.7-3.4,11.5-3.6,17.5
		c0,0.2,0.3,0.7,0.6,0.7c4,1.2,8.1,2.4,12.1,3.6c0.5-6.7,0.9-13.1,1.4-19.5C130.3,130.6,126.9,129.8,123.3,129z M165.5,173
		c3.9-1,7.6-1.9,11.2-2.8c0.3-0.1,0.6-0.6,0.7-1c0.7-2.5,1.5-5.1,2-7.6c0.6-3.1,0.8-6.3,1.2-9.7c-0.7,0.2-1,0.3-1.4,0.4
		c-3.5,0.9-7,1.9-10.6,2.7c-1.2,0.3-1.4,0.7-1.5,1.8c-0.1,2.6-0.3,5.2-0.6,7.8C166.4,167.1,165.9,169.8,165.5,173z M140,178.2
		c1.3,3.2,2.4,6.4,3.8,9.5c0.7,1.6,1.8,3.1,3,4.3c2.1,2.3,4.3,2.3,6.5,0c3.7-3.9,5-8.9,6.5-13.8C153.3,178.2,146.8,178.2,140,178.2z
		 M117.4,168c0-0.3,0.1-0.3,0.1-0.4c-1.5-5.5-2.3-11.2-2.5-16.9c0-0.4-0.5-0.9-0.9-1.1c-1.4-0.9-2.9-1.6-4.4-2.5
		c-1-0.6-2-1.3-3.1-2.1c-0.7,5.8-0.2,11.2,1.3,16.6c0.1,0.3,0.3,0.6,0.6,0.9C111.2,164.8,114.1,166.7,117.4,168z M193.4,145.2
		c-2.7,1.5-5.4,3-7.9,4.6c-0.3,0.2-0.4,0.8-0.5,1.3c-0.4,3.5-0.6,7-1.1,10.5c-0.3,2.1-0.9,4.2-1.4,6.5c3.5-1.4,6.4-3.3,9.1-5.6
		c0.3-0.3,0.5-0.7,0.6-1.2C193.5,156,194.1,150.6,193.4,145.2z M114,125.4c-2.9,4.3-5,8.8-6.2,13.7c-0.1,0.3-0.1,0.8,0.1,1
		c2.1,2.1,4.5,3.8,6.9,4.9c1.3-5.9,2.6-11.7,3.9-17.6C117.4,126.8,115.7,126.1,114,125.4z M185.2,145.3c2.2-1.7,4.5-3.3,6.7-5.1
		c0.2-0.2,0.4-0.7,0.3-0.9c-1.3-5-3.3-9.6-6.3-13.8c-1.7,0.7-3.4,1.4-4.7,2C182.6,133.3,183.9,139.1,185.2,145.3z M140.7,108.6
		c-7.1,3.6-12.2,9-15.7,16.4c3.3,0.7,6.4,1.4,9.6,2.1C135.7,120.4,137.7,114.4,140.7,108.6z M159.3,108.6c3,5.8,5,11.8,6.1,18.4
		c3.2-0.7,6.3-1.4,9.6-2.1C171.5,117.6,166.4,112.2,159.3,108.6z M125.3,175.5c2.8,7,10.4,14.1,15.5,15.9c-2.4-4.3-4.1-8.7-5.2-13.3
		c-0.1-0.3-0.4-0.7-0.6-0.7C131.8,176.7,128.6,176.1,125.3,175.5z M188.8,170c-2.5,1.1-4.8,2.1-7.1,3.1c-0.9,0.4-1.5,0.8-1.9,1.8
		c-1.8,4.4-4.3,8.4-7.5,12c-0.2,0.2-0.3,0.5-0.5,0.8C179.2,183.4,184.8,177.5,188.8,170z"/>
	<path class="st1" d="M200.2,185c1.3,0,2.2,1,2.2,2.7c0.1,3.4,1.5,6.2,4.3,8.3c1.6,1.2,3.4,1.9,5.4,2c0.4,0,0.8,0,1.2,0.1
		c1.3,0.1,2.2,1,2.2,2.2c0,1.2-0.9,2-2.2,2.2c-1.7,0.3-3.5,0.4-5,1.1c-3.7,1.7-5.6,4.9-5.9,9c0,0.3,0,0.6-0.1,1
		c-0.2,1.2-1.1,2.1-2.2,2c-1.2-0.1-1.9-0.8-2.1-2c-0.1-0.3,0-0.6-0.1-1c-0.3-5.7-4.5-9.9-10.1-10.1c-0.5,0-0.9,0-1.3-0.2
		c-1-0.3-1.5-1-1.6-2c0-1.1,0.6-1.8,1.6-2.1c0.4-0.1,0.8-0.1,1.2-0.1c5.9-0.3,9.9-4.4,10.3-10.3C198.1,186,198.9,185,200.2,185z"/>
	<path class="st1" d="M97.6,115c-1.3,0-2.1-1-2.2-2.6c-0.1-2.8-1.2-5-3.4-6.6c-1.5-1.1-3.1-1.6-5-1.6c-1.6-0.1-2.6-1-2.5-2.3
		c0.1-1.3,1-2,2.7-2.1c3.4-0.2,6-1.8,7.4-4.9c0.5-1,0.6-2.3,0.8-3.4c0.2-1.5,0.9-2.5,2.2-2.5c1.3,0,2.1,0.9,2.2,2.6
		c0.3,5,3.4,8,8.3,8.3c1.6,0.1,2.6,0.9,2.5,2.2c0,1.2-1,2-2.5,2.1c-5,0.3-8,3.3-8.4,8.4C99.7,114.1,98.8,115.1,97.6,115z"/>
	<path class="st1" d="M117.2,193.7c0,1.3-1,2.1-2.7,2.2c-3.4,0.2-6,1.8-7.4,5c-0.5,1-0.6,2.2-0.7,3.3c-0.2,1.7-0.9,2.6-2.2,2.6
		c-1.3,0-2.1-0.9-2.2-2.6c-0.3-4.9-3.4-8-8.3-8.3c-1.6-0.1-2.6-1-2.5-2.3c0-1.2,1-2,2.5-2.1c5-0.3,8-3.4,8.4-8.3
		c0.1-1.6,0.9-2.6,2.2-2.6c1.3,0,2.1,1,2.2,2.6c0.3,4.8,3.4,8,8.3,8.3C116.3,191.6,117.2,192.4,117.2,193.7z"/>
</g>
</svg>
