<?xml version="1.0" encoding="UTF-8"?><svg id="Capa_1" xmlns="http://www.w3.org/2000/svg" viewBox="0 0 300 300"><defs><style>.cls-1{fill:#2e3192;}.cls-2{fill:#f2f2f2;}</style></defs><circle class="cls-2" cx="150" cy="150" r="99.5"/><g><path class="cls-1" d="M216.5,166.18c-.51,2.63-.85,5.3-1.57,7.87-5.02,17.99-22.84,30.04-41.36,28.08-8.27-.88-15.54-4.02-21.84-9.44-.23-.19-.46-.38-.69-.56-.03-.02-.08-.02-.12-.02-16.53,15.46-42.69,12.83-56.57-3.85-12.73-15.29-11.91-37.89,2.08-52.28,14.19-14.6,38.04-16.29,54.46-1.52,.6-.49,1.2-1.02,1.83-1.5,11.73-9.1,24.72-11.43,38.55-6.15,13.98,5.34,22.15,15.85,24.78,30.61,.17,.96,.31,1.92,.46,2.88v5.89Zm-61.65,14.43c8.63-14.82,5.4-35.64-11.07-46.62-15.94-10.63-37.16-6.5-48.21,9.24-10.82,15.42-7.31,36.87,7.91,48.18,15.05,11.19,34.56,7.69,44.56-2.4-.51-.62-1.02-1.24-1.59-1.92-.42,.36-.77,.66-1.13,.96-7.66,6.29-16.43,8.85-26.18,7.17-16.74-2.89-27.93-16.93-27.08-33.9,.15-3.1,1.14-6.18,1.89-9.23,.3-1.25,1.42-1.69,2.51-1.32,1.07,.36,1.54,1.37,1.2,2.59-.1,.37-.23,.73-.35,1.1-1.33,4.04-1.72,8.18-1.17,12.39,2.69,20.58,25.65,31.5,43.27,20.59,1.68-1.04,3.2-2.35,4.73-3.49-7.78-13.93-7.76-27.6-.02-41.41-.22-.15-.45-.28-.64-.45-9.72-8.88-24.74-9.78-35.48-2.13-2.6,1.85-4.83,4.06-6.71,6.63-.55,.76-1.31,1.26-2.19,.9-.59-.24-1.3-.86-1.4-1.41-.12-.64,.19-1.53,.61-2.08,8.23-10.52,19.01-14.79,32.17-12.63,14.43,2.36,25.93,15.76,26.35,30.37,.16,5.52-.84,10.77-3.24,15.76-.19,.39-.08,1.03,.11,1.46,.25,.57,.71,1.04,1.14,1.65Zm.53-41.23c.43-.37,.78-.68,1.14-.97,7.62-6.26,16.36-8.82,26.06-7.18,16.71,2.83,27.91,16.74,27.19,33.68-.14,3.19-1.18,6.34-1.89,9.49-.23,1.03-1.08,1.54-2.16,1.39-.95-.13-1.57-.75-1.66-1.69-.05-.52,.14-1.09,.32-1.6,1.49-4.5,1.99-9.09,1.14-13.76-1.97-10.85-8.1-18.47-18.43-22.22-10.39-3.76-19.98-1.75-28.5,5.33-.8,.67-.77,1.13-.28,1.99,5,8.85,6.38,18.25,4.18,28.18-.92,4.16-2.58,8.02-4.89,11.91,.28,.18,.6,.34,.85,.56,7.56,6.49,16.22,8.64,25.9,6.35,6.46-1.53,11.66-5.12,15.73-10.35,.39-.5,.79-1.06,1.32-1.35,.86-.49,1.77-.33,2.41,.49,.75,.97,.46,1.88-.21,2.8-9.1,12.59-26.38,16.88-40.41,10-16.07-7.88-22.77-27.11-15.03-43.23,.38-.79,.34-1.32-.17-1.94-.35-.42-.65-.88-1-1.36-8.01,13.19-6.41,33.96,9.9,45.79,15.64,11.34,37.49,7.83,48.85-7.74,11.41-15.65,8.05-37.54-7.52-48.99-15.24-11.2-34.79-7.38-44.43,2.51,.51,.61,1.02,1.23,1.58,1.9Zm-4.47,33.87c2.58-6.69,2.63-13.37,0-20.02-2.58,6.68-2.61,13.35,0,20.02Z"/><path class="cls-1" d="M171.44,97.91c-.05,3.64-1.01,6.59-3.27,8.91-5.18,5.32-10.45,10.55-15.71,15.79-1.05,1.05-2.06,1.02-3.13-.05-5.11-5.09-10.27-10.13-15.28-15.32-4.64-4.81-4.89-12.07-.79-17.04,4.21-5.11,11.16-6.23,16.94-2.66,.76,.47,1.14,.12,1.69-.2,4.3-2.48,8.71-2.64,13.03-.2,4.28,2.42,6.36,6.26,6.53,10.76Zm-20.54,20.42c4.8-4.74,9.7-9.38,14.36-14.25,3.23-3.38,2.9-8.75-.4-12.05-3.28-3.3-8.5-3.47-12.08-.42-1.58,1.35-2.15,1.35-3.74,0-3.6-3.06-8.77-2.88-12.08,.42-3.3,3.29-3.64,8.66-.4,12.05,4.65,4.87,9.55,9.51,14.34,14.25Z"/></g></svg>