<?xml version="1.0" encoding="UTF-8"?><svg id="Capa_1" xmlns="http://www.w3.org/2000/svg" viewBox="0 0 300 300"><defs><style>.cls-1{fill:#2e3192;stroke:#2e3192;stroke-miterlimit:10;stroke-width:2px;}.cls-2{fill:#f2f2f2;}</style></defs><circle class="cls-2" cx="150" cy="150" r="99.5"/><g><path class="cls-1" d="M154.77,84.54c1.99,.34,3.87,.94,5.36,2.39,.55,.54,1.05,1.16,1.51,1.78,.53,.7,.51,1.41-.25,1.93-.72,.5-1.29,.16-1.82-.44-.64-.72-1.26-1.52-2.05-2.05-2.78-1.86-5.74-.93-7.15,2.1-.22,.47-.82,1.01-1.29,1.06-.4,.04-1.04-.48-1.28-.91-1.41-2.49-3.12-3.59-5.29-3.24-2.37,.38-4.39,2.52-4.85,5.11-.42,2.39,.19,4.57,1.35,6.63,2.22,3.91,5.57,6.69,9.25,9.12,.25,.17,.83,.07,1.13-.11,2.86-1.71,5.53-3.67,7.77-6.17,.28-.31,.65-.71,1-.73,.43-.03,1.06,.17,1.29,.49,.23,.32,.23,1.02,.03,1.37-.36,.63-.88,1.22-1.46,1.66-2.79,2.12-5.6,4.2-8.47,6.22-.38,.27-1.23,.33-1.61,.09-4.71-2.95-9.02-6.33-11.57-11.46-1.25-2.52-1.78-5.17-1.14-7.95,.81-3.49,2.97-5.75,6.46-6.7,.15-.04,.28-.13,.42-.19,.86,0,1.72,0,2.58,0,1.48,.85,2.97,1.69,4.57,2.61,1.06-1.58,2.95-2.29,5.04-2.61h.47Z"/><path class="cls-1" d="M185.65,109.7c0,2.68,.06,5.18-.04,7.67-.03,.74-.36,1.6-.84,2.17-1.65,1.93-3.42,3.75-5.16,5.6-1.14,1.22-1.67,1.23-2.78,.04-1.78-1.91-3.6-3.8-5.32-5.77-.42-.48-.7-1.23-.72-1.86-.08-2.57-.03-5.14-.03-7.84-1.98,0-3.85-.04-5.71,.04-.3,.01-.71,.54-.85,.91-2.04,5.3-2.18,10.65-.4,16.05,.34,1.04,.72,2.06,1.08,3.09,.27,.79,.07,1.42-.71,1.73-.81,.32-1.35-.09-1.66-.84-3.08-7.36-3.47-14.73-.21-22.16,.44-1.01,1.06-1.42,2.15-1.4,2.38,.05,4.77,0,7.15,.02,1.38,.01,1.73,.38,1.74,1.75,.01,2.62-.03,5.23,.03,7.85,.01,.52,.26,1.14,.6,1.53,1.33,1.53,2.75,2.98,4.25,4.59,1.59-1.71,3.17-3.37,4.68-5.08,.21-.24,.19-.73,.19-1.11,.02-2.58,0-5.16,.01-7.73,0-1.44,.35-1.79,1.81-1.8,2.42-.02,4.84,.02,7.27-.02,.98-.01,1.58,.36,1.99,1.28,2.8,6.3,3.16,12.73,1.04,19.29-.32,1-.64,2.01-1.05,2.98-2.13,4.91-2.67,10.04-2.35,15.33,.12,1.93-.26,2.21-2.22,2.21-7.23,0-14.45,0-21.68-.01-.72,0-1.2,.14-1.64,.8-7.3,11.14-11.66,23.33-13.06,36.56-.3,2.79-.3,5.61-.46,8.42-.08,1.42,.45,2.6,1.67,3.26,1.8,.97,3.69,1.77,5.73,2.73,.52-2.61,.98-4.9,1.42-7.18,1.12-5.78,2.22-11.57,3.37-17.35,.1-.53,.42-1.11,.82-1.44,.25-.2,1.02-.14,1.25,.09,.32,.33,.54,.97,.47,1.42-.54,3.15-1.17,6.29-1.78,9.43-.95,4.9-1.91,9.8-2.86,14.7-.04,.22-.03,.46-.06,1.03,4.73,.5,9.43,.99,14.29,1.5,0-.75,0-1.17,0-1.59,0-8.2,0-16.41,0-24.61,0-.35-.12-.81,.05-1.03,.34-.44,.82-1.01,1.28-1.05,.37-.03,.88,.58,1.18,1.01,.17,.24,.05,.68,.05,1.03,0,8.2,0,16.41,0,24.61v1.62c4.83-.5,9.53-.99,14.4-1.5-.41-2.16-.74-3.99-1.09-5.81-1.21-6.2-2.43-12.4-3.64-18.6-.3-1.54-.05-2.25,.84-2.42,.92-.17,1.39,.38,1.69,1.91,1.49,7.74,2.99,15.47,4.5,23.21,.04,.22,.13,.44,.31,.98,2-.95,3.96-1.77,5.81-2.78,1.19-.65,1.52-1.89,1.51-3.23-.14-13.72-3.37-26.64-9.86-38.74-.24-.45-.5-.88-.72-1.34-.35-.72-.33-1.4,.43-1.83,.82-.47,1.46-.1,1.83,.66,1.59,3.26,3.3,6.47,4.68,9.81,4.23,10.22,6.15,20.92,6.21,31.97,.01,1.87-.9,3.27-2.29,4.42-2.44,2.01-5.37,3.01-8.37,3.74-8.4,2.04-16.91,2.32-25.48,1.54-4.25-.38-8.47-.98-12.47-2.48-1.95-.73-3.81-1.78-5.56-2.91-1.56-1.01-2.17-2.64-2.16-4.55,.09-17.01,4.76-32.62,14.1-46.84,.34-.51,.54-1.21,.55-1.83,.06-2.42,.02-4.84,.03-7.26,0-1.48,.38-1.87,1.87-1.87,7.23,0,14.45-.03,21.68,.02,.97,0,1.33-.31,1.6-1.2,1.13-3.73,2.54-7.38,3.47-11.16,1.12-4.55,.57-9.07-1.15-13.44-.27-.69-.61-.97-1.36-.95-1.71,.05-3.42,.02-5.31,.02Zm-18.17,35.87h21.7v-6.54h-21.7v6.54Z"/><path class="cls-1" d="M136.04,131.16c-.49,4.63-.95,8.94-1.37,13.25-.04,.44,.13,.92,.29,1.35,1.1,3.09,2.22,6.16,3.33,9.24,.58,1.61,.12,2.27-1.6,2.27-3.98,0-7.97-.05-11.95,.03-1.34,.03-2.25-.32-2.78-1.59-.19-.46-.52-.87-.87-1.44-.46,.74-.88,1.38-1.25,2.04-.38,.69-.92,.97-1.72,.97-4.3-.02-8.59,0-12.89-.02-1.41,0-1.89-.71-1.43-2.06,.84-2.43,1.64-4.88,2.58-7.27,.82-2.07,1.2-4.11,.86-6.37-.5-3.34-.73-6.72-1.11-10.39-.37,.54-.59,.82-.78,1.13-2.71,4.38-5.41,8.77-8.11,13.15-.88,1.42-1.32,1.53-2.73,.69-1.97-1.18-3.95-2.37-5.92-3.56-1.17-.71-1.3-1.22-.59-2.39,5.88-9.67,11.76-19.34,17.66-28.99,.29-.47,.78-.88,1.27-1.13,2.5-1.27,5.03-2.49,7.57-3.69,.48-.22,1.04-.37,1.57-.37,3.32-.03,6.64-.04,9.96,0,.56,0,1.17,.15,1.68,.39,2.51,1.18,5,2.38,7.46,3.64,.52,.27,1.04,.72,1.34,1.22,5.87,9.58,11.71,19.18,17.55,28.79,.83,1.37,.71,1.81-.66,2.63-1.97,1.19-3.94,2.38-5.92,3.55-1.22,.72-1.72,.6-2.48-.63-2.69-4.35-5.37-8.7-8.05-13.05-.24-.39-.5-.77-.91-1.39Zm-29.35,23.56c3.69,0,7.16,.02,10.63-.03,.29,0,.66-.35,.85-.64,.58-.87,1.08-1.81,1.65-2.7,.77-1.21,1.76-1.19,2.53,.03,.54,.86,.98,1.79,1.59,2.59,.27,.36,.84,.7,1.28,.71,2.11,.07,4.22,.03,6.33,.03,1.24,0,2.48,0,3.87,0-.2-.59-.33-.99-.47-1.38-.87-2.42-1.76-4.84-2.61-7.27-.17-.5-.32-1.07-.27-1.59,.55-5.59,1.14-11.19,1.72-16.78,.08-.75,.11-1.52,1.07-1.71,.93-.18,1.31,.46,1.71,1.11,3.17,5.15,6.35,10.3,9.53,15.45,.22,.36,.45,.7,.71,1.1,1.61-.97,3.13-1.89,4.68-2.82-.27-.45-.46-.79-.66-1.12-5.29-8.7-10.61-17.39-15.86-26.12-.66-1.09-1.52-1.66-2.69-2.03-.19,.41-.36,.75-.51,1.11-3.08,6.91-6.16,13.82-9.24,20.73-.31,.69-.61,1.56-1.51,1.32-.55-.15-1.14-.76-1.4-1.31-3.15-6.92-6.24-13.87-9.36-20.81-.15-.34-.33-.67-.48-.99-1.29,.35-2.09,1.06-2.73,2.14-5.24,8.69-10.53,17.35-15.81,26.02-.2,.32-.37,.67-.6,1.09,1.58,.95,3.11,1.86,4.66,2.79,.26-.41,.47-.73,.68-1.06,3.18-5.15,6.36-10.29,9.53-15.45,.43-.69,.83-1.38,1.81-1.11,.91,.25,.94,1.02,1.02,1.78,.43,4.23,.8,8.48,1.35,12.69,.37,2.84,.35,5.54-.87,8.22-.85,1.87-1.4,3.87-2.15,6.01Zm14.39-24.32c3.05-6.86,5.98-13.43,8.88-19.95-2.11-1.36-4.18-2.16-6.61-1.93-1.66,.16-3.37,.17-5.03,0-2.36-.24-4.2,.86-6.17,1.91,2.96,6.6,5.89,13.17,8.94,19.97Z"/><path class="cls-1" d="M121,173.72c-.22,2-.45,4.01-.66,6.01-.73,7.14-1.46,14.29-2.19,21.43-.01,.12-.03,.23-.05,.35-.11,.83-.5,1.46-1.42,1.36-.92-.09-1.19-.76-1.11-1.61,.2-2.06,.4-4.12,.61-6.18,.83-8.08,1.67-16.15,2.51-24.22,.36-3.45,.74-6.91,1.09-10.36,.08-.83,.35-1.49,1.29-1.49,1,0,1.26,.72,1.35,1.58,1.39,13.43,2.78,26.86,4.17,40.3,.02,.16,.03,.31,.04,.47,.04,.87-.33,1.49-1.23,1.53-.84,.04-1.25-.52-1.33-1.33-.47-4.54-.94-9.08-1.41-13.63-.49-4.73-.98-9.46-1.47-14.19-.06,0-.12,0-.18-.01Z"/><path class="cls-1" d="M136.02,181.92c0,6.25,0,12.49,0,18.74,0,.35,.13,.79-.04,1.03-.32,.46-.8,1.11-1.22,1.11-.42,0-.9-.64-1.26-1.07-.14-.16-.04-.53-.04-.8,0-12.61,0-25.22,0-37.84,0-.35-.09-.81,.09-1.02,.34-.39,.85-.87,1.3-.88,.37,0,.84,.54,1.12,.95,.17,.24,.06,.68,.06,1.03,0,6.25,0,12.49,0,18.74Z"/><path class="cls-1" d="M108.66,182.01c0,6.25,0,12.49,0,18.74,0,.39,.1,.87-.08,1.15-.26,.41-.74,.91-1.14,.93-.4,.02-.91-.46-1.2-.84-.2-.26-.13-.75-.13-1.14,0-12.53,0-25.07,0-37.6,0-.42-.07-.96,.15-1.25,.29-.37,.83-.76,1.26-.76,.36,0,.83,.49,1.05,.88,.18,.34,.09,.84,.09,1.27,0,6.21,0,12.42,0,18.62Z"/><path class="cls-1" d="M163.45,96.14c-.02,.98-.83,1.77-1.8,1.75-.97-.02-1.75-.83-1.73-1.82,.02-.99,.8-1.74,1.8-1.73,1,.02,1.76,.8,1.74,1.79Z"/><path class="cls-1" d="M121.07,144.79c1.06,0,1.91,.86,1.9,1.94-.01,1.04-.8,1.84-1.84,1.87-1.07,.03-1.96-.81-1.97-1.87-.01-1.05,.87-1.94,1.92-1.94Z"/><path class="cls-1" d="M122.96,138.97c.02,1.09-.81,1.94-1.89,1.94-1.06,0-1.93-.88-1.92-1.94,.02-.99,.86-1.86,1.85-1.89,1.05-.04,1.94,.82,1.95,1.89Z"/></g></svg>