<?xml version="1.0" encoding="UTF-8"?><svg id="Capa_1" xmlns="http://www.w3.org/2000/svg" viewBox="0 0 300 300"><defs><style>.cls-1{fill:#f2f2f2;stroke:#f2f2f2;stroke-miterlimit:10;stroke-width:3px;}.cls-2{fill:#2e3192;}</style></defs><circle class="cls-2" cx="150" cy="150" r="116.42"/><path class="cls-1" d="M88.57,149.52c.47-3.04,.79-6.1,1.43-9.1,4.97-23.38,24.23-42.08,47.78-45.9,22.3-3.62,41.04,3.28,56.11,20.12,.24,.27,.49,.54,1.11,1.23,.29-.51,.47-1.03,.82-1.38,8.29-8.27,16.6-16.51,24.89-24.77,1.45-1.44,3.06-2.35,5.19-1.94,3.85,.74,5.53,5.18,3.13,8.28-.37,.47-.79,.9-1.22,1.32-24.57,24.44-49.14,48.88-73.72,73.32-2.94,2.92-5.76,2.94-8.64,.04-7.86-7.91-15.71-15.83-23.58-23.73-1.61-1.62-2.48-3.42-1.78-5.73,1.06-3.49,5.31-4.81,8.17-2.55,.47,.37,.89,.8,1.31,1.22,6.37,6.41,12.74,12.81,19.09,19.23,.35,.36,.58,.84,.96,1.4,12.62-12.79,24.94-25.28,37.37-37.88-2.1-2.8-4.76-5.46-7.71-7.81-8.71-6.95-18.66-10.78-29.79-10.9-15.46-.16-28.43,5.6-38.65,17.3-6.35,7.28-10.28,15.78-11.36,25.33-2.09,18.36,4.03,33.6,18.38,45.36,6.51,5.34,14.04,8.61,22.32,9.95,11.34,1.85,22.1-.07,32.14-5.7,8.92-5,15.72-12.1,20.28-21.28,2.95-5.92,4.61-12.2,4.95-18.82,.06-1.1,.1-2.21,.21-3.31,.29-2.9,2.55-4.84,5.45-4.71,2.73,.12,4.83,2.35,4.85,5.2,.06,6.84-1.13,13.48-3.4,19.91-3.08,8.74-7.97,16.39-14.62,22.83-8.27,8-18.01,13.42-29.33,15.63-20.97,4.09-39.29-1.34-54.55-16.24-10.25-10-15.91-22.41-17.3-36.71-.05-.49-.18-.98-.28-1.47,0-2.58,0-5.16,0-7.74Z"/></svg>