<?xml version="1.0" encoding="UTF-8"?><svg id="Capa_1" xmlns="http://www.w3.org/2000/svg" viewBox="0 0 300 300"><defs><style>.cls-1{fill:#2e3192;}.cls-2{fill:#f2f2f2;}</style></defs><circle class="cls-2" cx="150" cy="150" r="99.5"/><g><path class="cls-1" d="M101.53,150.02c0-7.05-.13-14.11,.04-21.16,.14-5.72,1.5-11.18,4.78-16,4.7-6.91,11.44-10.36,19.58-11.27,3.3-.37,6.64-.63,9.96-.65,10.27-.08,20.55-.15,30.82,.05,4.15,.08,8.37,.51,12.41,1.45,11.1,2.59,18.26,11.12,19.63,22.94,.37,3.19,.63,6.41,.66,9.62,.09,10.33,.17,20.66-.02,30.99-.08,4.26-.48,8.6-1.44,12.75-2.55,11.09-11.05,18.36-22.71,19.66-4.53,.5-9.12,.71-13.68,.74-9.93,.08-19.87,.08-29.8-.11-5.55-.1-11.06-.85-16.07-3.5-8.23-4.35-12.82-11.4-13.69-20.5-.79-8.3-.77-16.67-1.1-25.01,.21,0,.42,0,.63-.01Zm48.67,39.95c0,.22,0,.43,.01,.65,8.05-.32,16.13-.37,24.16-1.04,8.21-.69,13.64-5.95,15.24-14.01,.4-2.04,.67-4.13,.71-6.2,.15-9.59,.28-19.18,.26-28.77-.01-4.73-.15-9.49-.65-14.19-.9-8.41-5.6-13.68-13.54-15.52-2.07-.48-4.23-.76-6.36-.81-8.18-.18-16.36-.35-24.54-.3-6.2,.03-12.42,.11-18.59,.67-8.35,.76-13.49,5.26-15.58,13.04-.47,1.73-.85,3.55-.86,5.33-.07,14.21-.16,28.43,.04,42.64,.07,5.11,1.63,9.92,5.54,13.6,3.7,3.48,8.32,4.75,13.2,4.87,6.99,.18,13.99,.05,20.98,.05Z"/><path class="cls-1" d="M150.36,124.81c13.98,0,25.21,11.28,25.22,25.33,.01,13.82-11.31,25.16-25.17,25.19-13.99,.04-25.39-11.4-25.32-25.41,.07-13.9,11.36-25.12,25.28-25.11Zm-16.38,25.17c-.02,9.15,7.24,16.42,16.39,16.42,9.03,0,16.28-7.26,16.3-16.34,.03-9.04-7.25-16.34-16.31-16.35-9.07-.01-16.37,7.23-16.39,16.27Z"/><path class="cls-1" d="M176.59,129.7c-3.27,0-5.91-2.62-5.92-5.87,0-3.25,2.61-5.9,5.88-5.94,3.19-.04,5.92,2.67,5.94,5.9,.01,3.23-2.65,5.91-5.9,5.92Z"/></g></svg>