<?xml version="1.0" encoding="UTF-8"?><svg id="Capa_1" xmlns="http://www.w3.org/2000/svg" viewBox="0 0 300 300"><defs><style>.cls-1{fill:#2e3192;}.cls-2{fill:#f2f2f2;}</style></defs><circle class="cls-2" cx="150" cy="150" r="99.5"/><g><path class="cls-1" d="M144.86,212.19c-2.46-.67-4.88-1.4-6.98-2.95-6.4-4.73-8.22-13.42-4.18-20.18,4.11-6.88,12.59-9.47,19.81-6.06,.3,.14,.6,.28,1.08,.5v-1.49c0-16.5,0-33,0-49.49,0-2.96,.8-4,3.68-4.82,17.52-4.97,35.05-9.93,52.57-14.9,3.52-1,5.66,.62,5.66,4.29,0,21.44,.02,42.89,0,64.33-.01,8.82-7.13,15.67-15.95,15.43-7.63-.21-14.19-6.54-14.72-14.21-.53-7.82,5-14.94,12.6-16.24,3.35-.57,6.53-.1,9.57,1.37,.22,.11,.45,.2,.77,.35v-31.4c-15.51,4.39-30.97,8.76-46.5,13.16v1.57c0,14.79-.13,29.59,.05,44.38,.11,8.92-6.14,15.23-13.04,16.18-.11,.02-.21,.13-.32,.19h-4.09Zm63.92-90.83c-15.53,4.39-30.98,8.76-46.45,13.14v7.38c15.55-4.4,31-8.77,46.45-13.15v-7.37Zm.04,60.12c0-4.21-3.45-7.65-7.66-7.65-4.21,0-7.67,3.42-7.69,7.62-.02,4.27,3.46,7.74,7.72,7.72,4.2-.02,7.63-3.48,7.62-7.69Zm-61.9,23.04c4.2,0,7.65-3.45,7.66-7.65,0-4.21-3.42-7.66-7.62-7.69-4.27-.02-7.74,3.45-7.72,7.71,.02,4.2,3.48,7.63,7.68,7.63Z"/><path class="cls-1" d="M85.5,156.43c.91-2.22,1.49-4.67,2.79-6.63,4.25-6.4,12.4-8.43,19.34-5.09,.23,.11,.45,.22,.89,.43v-1.58c0-19.1,0-38.2,0-57.29,0-.38,0-.77,0-1.15,.06-1.84,1.08-3.21,2.77-3.72,1.6-.49,3.19,.06,4.25,1.55,1.01,1.42,1.99,2.87,2.92,4.35,4.85,7.78,11.27,14.08,18.52,19.58,2.34,1.78,4.74,3.51,6.39,6.01,4.18,6.32,4.83,12.99,1.38,19.73-3.4,6.64-9.07,10.1-16.54,10.48-2.5,.13-4.26-1.45-4.34-3.68-.08-2.23,1.6-3.87,4.08-3.97,5.04-.21,9.28-3.39,10.73-8.05,1.48-4.73-.12-9.69-4.18-12.74-6.64-4.97-12.89-10.35-18.31-17.24,0,.83,0,1.31,0,1.78,0,19.69,0,39.39,0,59.08,0,7.68-5.43,14.13-12.8,15.3-8.31,1.32-15.96-4-17.63-12.25-.06-.28-.17-.55-.26-.82,0-1.36,0-2.73,0-4.09Zm23.02,1.99c-.02-4.2-3.48-7.62-7.69-7.61-4.26,0-7.7,3.51-7.65,7.79,.05,4.19,3.55,7.59,7.76,7.55,4.19-.04,7.61-3.52,7.59-7.73Z"/></g></svg>