<?xml version="1.0" encoding="UTF-8"?><svg id="Capa_1" xmlns="http://www.w3.org/2000/svg" viewBox="0 0 300 300"><defs><style>.cls-1{fill:#2e3192;stroke:#2e3192;stroke-miterlimit:10;stroke-width:2px;}.cls-2{fill:#f2f2f2;}</style></defs><circle class="cls-2" cx="150" cy="150" r="99.5"/><path class="cls-1" d="M205.5,141.91c-.59,.86-1.42,1.1-2.44,1.07-1.67-.06-3.35-.02-5.14-.02v1.32c0,13.42,0,26.84,0,40.26,0,.49,0,.99-.14,1.45-.22,.76-.83,1.26-1.57,1.08-.55-.14-1.12-.63-1.46-1.12-.24-.34-.16-.94-.16-1.43,0-13.39,0-26.77,0-40.16,0-.42,0-.84,0-1.33h-8.8c.55,1.45,1.08,2.85,1.61,4.25,2.66,7.07,4.47,14.35,5.62,21.81,.13,.81-.06,1.48-.77,1.91-.76,.47-1.46,.22-2.12-.3-2.83-2.24-5.66-4.47-8.5-6.7-.3-.24-.62-.44-1.03-.73-.22,.35-.41,.67-.62,.98-1.88,2.87-3.77,5.73-5.65,8.6-.47,.71-1.05,1.26-1.97,1.1-1-.17-1.3-.94-1.43-1.83-1.1-7.16-3.01-14.09-5.82-20.76-.99-2.34-2.1-4.63-3.38-6.88v55.57h32.87c0-2.07,0-4.12,0-6.18,0-.53-.02-1.05,0-1.58,.06-1.1,.73-1.81,1.66-1.81,.94,0,1.63,.7,1.66,1.81,.04,1.79,.01,3.57,.01,5.36,0,1.3,.02,2.59,0,3.89-.03,1.26-.57,1.76-1.82,1.76-29.61,0-59.22,0-88.83,0-1.24,0-1.76-.5-1.83-1.76-.02-.31,0-.63,0-.95,0-18.75,0-37.5,0-56.24v-1.4c-1.76,0-3.46,0-5.16,0-1.92,0-2.41-.51-2.42-2.44,0-.91-.02-1.82,0-2.73,.04-1.07,.65-1.73,1.56-1.77,.95-.05,1.66,.62,1.75,1.7,.05,.59,0,1.18,0,1.83,.39,.03,.69,.06,1,.06,5.33,0,10.65,0,15.98,0,.49,0,.88,.02,1.19-.57,2.5-4.65,5.06-9.27,7.6-13.9,.07-.12,.11-.25,.19-.45-3.07-.85-6.1-1.69-9.13-2.53-.24-.07-.48-.12-.71-.2-3.28-1.18-6.66-1.46-10.12-1.3-1.95,.09-3.91,.02-5.99,.02,0,1.76,0,3.43,0,5.1,0,1.61,.02,3.22,0,4.84-.02,1.25-.67,2.02-1.67,2.02-1,0-1.66-.76-1.66-2.02-.01-3.71-.01-7.43,0-11.14,0-1.49,.61-2.11,2.11-2.12,2.69-.02,5.39,0,8.12,0-.42-1.07-.9-2.04-1.17-3.07-.51-1.91-.31-3.82,.38-5.67,.8-2.16,1.57-4.34,2.41-6.49,1.48-3.77,4.21-5.93,8.3-6.22,1.72-.12,3.32,.39,4.85,1.12,6.51,3.09,13.02,6.18,19.53,9.29,.58,.28,1.02,.27,1.65,0,.95-.4,2-.72,3.02-.75,3.08-.09,6.17-.09,9.25,0,.99,.03,2.03,.28,2.92,.69,.74,.34,1.25,.3,1.93-.03,6.47-3.1,12.96-6.16,19.43-9.24,3.05-1.45,6.06-1.54,9.04,.17,1.83,1.05,3.1,2.61,3.87,4.55,.95,2.41,1.88,4.83,2.71,7.28,.93,2.73,.66,5.38-.8,7.88-.06,.11-.09,.24-.19,.48,2.71,0,5.33,.02,7.95,0,1.03-.01,1.86,.26,2.35,1.22v23.34Zm-63.83,2.6c-.09-.03-.18-.05-.27-.08-1.06,2.32-2.17,4.61-3.15,6.95-2.76,6.58-4.68,13.4-5.76,20.46-.14,.91-.28,1.86-1.41,2.11-1.09,.24-1.67-.48-2.19-1.27-1.84-2.81-3.69-5.62-5.53-8.43-.2-.31-.39-.62-.61-.97-.38,.27-.68,.47-.95,.68-2.84,2.23-5.68,4.45-8.5,6.69-.69,.54-1.4,.85-2.21,.35-.74-.46-.86-1.17-.73-2.02,1.22-8.02,3.27-15.82,6.23-23.38,.33-.84,.64-1.69,.96-2.56h-8.72v57.01h32.84v-55.54Zm16.57,55.57v-57.04h-13.16v57.04h13.16Zm-.26-68.3c7.82,11.02,12.97,23.03,15.62,36.32,.33-.47,.54-.73,.72-1.02,1.33-2.18,2.65-4.37,3.97-6.55,.88-1.46,1.72-1.69,3.1-.71,2.2,1.56,4.37,3.16,6.55,4.75,.28,.21,.57,.41,.94,.68,0-.29,.02-.4,0-.5-2.78-13.81-7.98-26.63-15.68-38.44-.31-.48-.57-.65-1.17-.48-3.13,.9-6.27,1.74-9.4,2.62-.29,.08-.64,.22-.79,.45-.89,1.38-2.13,2.29-3.85,2.89Zm-43.69,33.52c2.76-1.98,5.23-3.76,7.72-5.51,1.34-.94,2.18-.73,3.02,.69,.68,1.14,1.31,2.32,2,3.45,.83,1.36,1.71,2.69,2.71,4.25,2.65-13.38,7.82-25.4,15.61-36.38-1.69-.61-2.97-1.52-3.86-2.94-.13-.2-.45-.33-.7-.4-3.17-.88-6.34-1.74-9.5-2.64-.55-.16-.8-.01-1.1,.44-6.19,9.52-10.85,19.72-13.83,30.68-.73,2.69-1.34,5.42-2.07,8.36Zm48.48-40.48c.24,0,.35,.02,.45,0,8.6-2.36,17.2-4.71,25.79-7.11,3.61-1.01,5.23-4.27,3.99-7.83-.78-2.24-1.63-4.47-2.48-6.69-.21-.55-.48-1.1-.83-1.57-1.74-2.42-4.65-3.06-7.59-1.67-6.32,2.99-12.64,6-18.96,9-.28,.13-.55,.29-.77,.42,.17,1.23,.34,2.39,.52,3.65,.42-.22,.81-.44,1.22-.62,3.56-1.62,7.08-3.35,10.7-4.82,2.59-1.06,5.36-1.64,8.2-1.6,2.53,.03,4.86,.64,6.57,2.71,.8,.97,.81,1.96,.06,2.61-.71,.63-1.67,.54-2.49-.35-1.05-1.13-2.33-1.68-3.83-1.62-1.43,.06-2.88,.12-4.26,.46-5.66,1.39-10.81,3.98-15.8,6.92-.22,.13-.46,.47-.46,.72-.03,2.45-.02,4.89-.02,7.41Zm-21.79-15.45c-.08-.06-.16-.13-.25-.18-6.6-3.14-13.19-6.31-19.82-9.39-3.33-1.54-6.63-.17-8,3.23-.93,2.3-1.8,4.63-2.59,6.98-.28,.84-.42,1.8-.32,2.67,.3,2.7,1.91,4.34,4.49,5.05,6.1,1.68,12.2,3.36,18.3,5.04,2.55,.7,5.1,1.41,7.79,2.15,0-2.44-.03-4.74,.02-7.05,.01-.66-.23-1.01-.79-1.3-1.55-.81-3.04-1.73-4.61-2.51-4.08-2.02-8.21-3.95-12.76-4.65-2.44-.37-4.83-.39-6.66,1.75-.6,.71-1.44,.67-2.18,.12-.71-.53-.83-1.45-.26-2.25,1.17-1.67,2.82-2.56,4.8-2.9,2.54-.44,5.02-.08,7.48,.56,4.81,1.24,9.26,3.34,13.59,5.74,.41,.23,.83,.43,1.25,.65,.18-1.3,.35-2.47,.52-3.73Zm61.09,30.24v-18.93c-3.79,0-7.5,0-11.21,0-.24,0-.48,.09-.71,.16-3.44,.94-6.88,1.88-10.31,2.83-1.2,.33-2.39,.68-3.58,1.02,.04,.17,.04,.25,.07,.31,2.57,4.69,5.13,9.38,7.73,14.05,.16,.29,.7,.53,1.06,.54,3.4,.04,6.79,.02,10.19,.02,2.24,0,4.47,0,6.76,0Zm-42.64-20.89c0-2.17,.01-4.34,0-6.51-.02-2.12-1.21-3.33-3.31-3.34-2.97-.01-5.95-.02-8.92,0-2.04,.01-3.26,1.22-3.27,3.28-.02,4.41-.02,8.82,0,13.23,.01,2.03,1.27,3.24,3.31,3.26,2.94,.02,5.88,.02,8.82,0,2.16-.01,3.36-1.23,3.38-3.4,.02-2.17,0-4.34,0-6.51Zm-.28,20.82c-1.04-1.59-1.96-3.06-2.94-4.49-.71-1.03-1.29-2.4-2.3-2.91-1.01-.51-2.46-.15-3.72-.16-.17,0-.36-.03-.52,.01-.19,.05-.43,.12-.53,.26-1.65,2.37-3.29,4.75-5.04,7.3h15.05Z"/></svg>