<?xml version="1.0" encoding="UTF-8"?><svg id="Capa_1" xmlns="http://www.w3.org/2000/svg" viewBox="0 0 300 300"><defs><style>.cls-1{fill:#f2f2f2;}</style></defs><path class="cls-1" d="M134.81,122.74c.58-2.17,1.58-3.05,3.31-2.97,1.5,.07,2.52,1.12,2.86,2.95h18.04c.41-1.92,1.43-2.93,2.99-2.96,1.65-.03,2.64,.87,3.15,2.84,1.34,.23,2.68,.36,3.97,.71,6.42,1.73,11.01,7.49,11.07,14.12,.09,9.35,.1,18.7,0,28.05-.09,7.99-6.63,14.55-14.62,14.64-10.37,.11-20.74,.11-31.11,0-8.03-.08-14.56-6.66-14.65-14.69-.1-9.26-.09-18.51,0-27.77,.07-8.18,6.5-14.63,14.68-14.92,.09,0,.19-.01,.33-.02Zm-8.97,21.2c-.01,.29-.03,.52-.03,.76,0,6.71-.01,13.41,0,20.12,0,5.38,3.98,9.33,9.37,9.34,9.87,0,19.75,0,29.62,0,.68,0,1.37-.05,2.04-.18,4.4-.9,7.35-4.54,7.36-9.12,.01-6.73,0-13.46,0-20.19,0-.23-.03-.45-.04-.71h-48.32Zm15.22-15.11c-.07,.08-.1,.1-.1,.12,0,.97,0,1.94-.03,2.9-.03,1.29-.84,2.39-2.03,2.8-1.98,.69-3.95-.73-4.02-2.91-.03-.96,0-1.92,0-2.87-4.7-.25-9.26,4.13-8.98,8.96h48.21c.31-5.23-4.86-9.39-8.97-8.91,0,.91,.01,1.83,0,2.74-.02,1.28-.56,2.28-1.74,2.85-1.98,.95-4.24-.45-4.31-2.66-.03-1.01,0-2.01,0-3.03h-18.02Z"/><path class="cls-1" d="M162.09,149.97c1.65-.01,3.04,1.37,3.04,3.01,0,1.66-1.37,3.03-3.02,3.03-1.66,0-3.03-1.36-3.03-3.01,0-1.66,1.34-3.02,3.01-3.03Z"/><path class="cls-1" d="M140.93,165.07c0,1.67-1.36,3.03-3.01,3.03-1.66,0-3.03-1.35-3.03-3.01,0-1.64,1.36-3.02,3.02-3.04,1.63-.02,3.03,1.37,3.03,3.02Z"/><path class="cls-1" d="M162.09,168.1c-1.66,0-3.02-1.36-3.02-3.02,0-1.65,1.37-3.02,3.02-3.03,1.63,0,3.04,1.4,3.02,3.03-.02,1.67-1.38,3.02-3.03,3.02Z"/><path class="cls-1" d="M140.93,153c-.01,1.66-1.39,3.03-3.03,3.01-1.66-.01-3.02-1.39-3.02-3.03,0-1.65,1.38-3.01,3.04-3.01,1.66,0,3.02,1.37,3.01,3.03Z"/><path class="cls-1" d="M147,152.96c.01-1.67,1.36-3,3.04-2.99,1.66,0,2.99,1.38,2.97,3.05-.02,1.68-1.38,3.02-3.04,2.99-1.68-.03-2.99-1.37-2.97-3.05Z"/><path class="cls-1" d="M153.01,165.09c-.01,1.68-1.36,3.01-3.02,3-1.67,0-2.99-1.36-2.99-3.03,0-1.67,1.35-3.01,3.02-3.01,1.66,0,3,1.37,2.99,3.04Z"/></svg>