<?xml version="1.0" encoding="UTF-8"?><svg id="Capa_1" xmlns="http://www.w3.org/2000/svg" viewBox="0 0 300 300"><defs><style>.cls-1{fill:#f2f2f2;}</style></defs><path class="cls-1" d="M147.98,185.88c-1.17-.17-2.35-.31-3.51-.53-7.21-1.35-13.18-4.85-17.85-10.49-4.95-5.99-7.22-12.94-6.92-20.7,.51-13.1,9.75-24.56,22.43-27.87,1.42-.37,2.88-.56,4.32-.84,.22-.04,.45-.09,.7-.14v-5.59c-.9,0-1.8,.02-2.7,0-1.12-.04-1.97-.57-2.47-1.57-.48-.95-.4-1.91,.2-2.79,.53-.79,1.29-1.22,2.24-1.22,3.71-.01,7.43-.02,11.14,0,1.54,.01,2.75,1.3,2.74,2.8-.01,1.48-1.19,2.72-2.7,2.78-.91,.03-1.82,0-2.77,0v5.62c3.03,.32,5.97,1.01,8.78,2.18,2.8,1.17,5.36,2.73,7.8,4.73,.93-.96,1.83-1.93,2.78-2.85,.82-.8,1.82-1.04,2.91-.64,1.06,.38,1.67,1.17,1.83,2.28,.13,.94-.21,1.74-.88,2.41-.89,.89-1.8,1.77-2.68,2.64,.92,1.36,1.86,2.62,2.68,3.97,10.48,17.36,.76,40.4-18.99,44.97-1.52,.35-3.08,.49-4.62,.74-.18,.03-.36,.08-.54,.12h-3.92Zm-22.71-30.3c.01,13.63,11.12,24.72,24.76,24.7,13.6-.02,24.69-11.12,24.69-24.71,0-13.62-11.12-24.74-24.74-24.75-13.62,0-24.73,11.12-24.72,24.76Z"/><path class="cls-1" d="M150.37,158.37c-1.47-.07-2.34-.53-2.85-1.54-.5-.97-.43-1.94,.17-2.85,.13-.19,.29-.37,.45-.53,3.58-3.58,7.16-7.17,10.74-10.75,.85-.85,1.85-1.18,3-.78,1.06,.36,1.69,1.14,1.86,2.25,.14,.89-.12,1.69-.74,2.31-3.69,3.71-7.38,7.42-11.11,11.08-.46,.46-1.2,.64-1.53,.81Z"/></svg>